<?xml version="1.0" encoding="UTF-8" standalone="no"?>
<svg
   xmlns:dc="http://purl.org/dc/elements/1.1/"
   xmlns:cc="http://creativecommons.org/ns#"
   xmlns:rdf="http://www.w3.org/1999/02/22-rdf-syntax-ns#"
   xmlns:svg="http://www.w3.org/2000/svg"
   xmlns="http://www.w3.org/2000/svg"
   viewBox="0 0 1466.6667 1066.6667"
   height="1066.6667"
   width="1466.6667"
   xml:space="preserve"
   id="svg2"
   version="1.1"><metadata
     id="metadata8"><rdf:RDF><cc:Work
         rdf:about=""><dc:format>image/svg+xml</dc:format><dc:type
           rdf:resource="http://purl.org/dc/dcmitype/StillImage" /></cc:Work></rdf:RDF></metadata><defs
     id="defs6" /><g
     transform="matrix(1.3333333,0,0,-1.3333333,0,1066.6667)"
     id="g10"><g
       transform="scale(0.1)"
       id="g12"><path
         id="path14"
         style="fill:#ffffff;fill-opacity:1;fill-rule:nonzero;stroke:none"
         d="M 0,0 H 11000 V 8000 H 0 Z" /><path
         id="path16"
         style="fill:#f1f2f2;fill-opacity:1;fill-rule:nonzero;stroke:none"
         d="m 5170.23,1318.82 c -291.09,-0.84 -582.18,-7.62 -872.76,-38.92 -109.56,-11.8 -216.83,-37.76 -326.63,-48.23 -219.35,-20.92 -434.77,-59.94 -654.88,-77.94 -177.27,-14.49 -355.27,-23.04 -532.01,-41.43 -165.71,-17.24 -349.16,-13.27 -513.6,15.22 -121.73,21.08 -244.01,32.96 -363.7,66.83 -133.9,37.89 -279.35,64.97 -418.85,64 -198.91,-1.4 -392.64,-1.55 -583.003,-68.46 C 837.969,1166.42 756.16,1127.81 705.41,1078.53 589.246,965.711 573.523,684.211 689.512,567.199 884.871,370.262 1301.85,293 1575.68,289.352 c 300.08,-4 591.6,17.57 892.11,30.257 279.24,11.793 557.8,28.563 837.5,27.973 571.27,-1.203 1142.62,0 1712.86,36.957 535.76,34.731 1072.86,22.801 1609.79,22.801 550.6,0 1097.47,-4.192 1644.09,-75.059 238.18,-30.879 480.81,-41.691 720.18,-63.32 214.37,-19.379 420.38,0.379 633.9,18.289 179.29,15.031 357.42,59.629 520.29,135.02 128.9,59.671 358.8,245.07 398.3,387.519 110.9,399.341 -1562.16,389.741 -1819.04,388.841 -287.36,-1 -577.01,-10.15 -864.15,0.46 -120.78,4.46 -239.78,27.33 -357.66,52.37 -117.42,24.97 -235.72,18.62 -354.8,29.11 -496.55,43.73 -994.22,37.34 -1492.35,37.34 -162.1,0 -324.28,1.38 -486.47,0.91" /><path
         id="path18"
         style="fill:#3b455a;fill-opacity:1;fill-rule:nonzero;stroke:none"
         d="m 2867.62,2283.48 25.65,-595.04 -75.2,-1011.768 -112.54,-8 -136.73,918.928 -189.14,777.59 487.96,-81.71" /><path
         id="path20"
         style="fill:#2e3644;fill-opacity:1;fill-rule:nonzero;stroke:none"
         d="m 2709.55,621.262 126.02,-52.203 56.52,65.183 -65.17,56.52 -121.7,-8.653 4.33,-60.847" /><path
         id="path22"
         style="fill:#3b455a;fill-opacity:1;fill-rule:nonzero;stroke:none"
         d="m 2071,2494.03 -24.7,-449.77 73.27,-1337.381 112.69,-5.617 168.86,877.138 148.96,961.89 -479.08,-46.26" /><path
         id="path24"
         style="fill:#2e3644;fill-opacity:1;fill-rule:nonzero;stroke:none"
         d="m 2229.23,653.781 -124.89,-54.84 -57.88,63.969 63.96,57.879 121.86,-6.09 -3.05,-60.918" /><path
         id="path26"
         style="fill:#ccd2d9;fill-opacity:1;fill-rule:nonzero;stroke:none"
         d="m 2726.15,3819.05 -351.61,37.68 c 0,0 -195.61,-20.91 -328.34,-485.44 -73.84,-258.45 -96.32,-665.65 -101.73,-976.08 8.3,-44.28 56.56,-238.26 260.56,-205.36 350.32,56.51 536.79,113.02 689.35,84.76 129.95,-28.25 118.96,150.67 104.68,287.23 l -51.78,422.49 -221.13,834.72" /><path
         id="path28"
         style="fill:#aa6755;fill-opacity:1;fill-rule:nonzero;stroke:none"
         d="m 2658.25,4256.74 c -88.63,19.53 -179.84,37.03 -268.56,19.47 -19.44,-3.85 -40.29,-10.61 -50.83,-27.38 -4.08,-6.51 -6.24,-14 -8.23,-21.41 -22.4,-83.22 -50.8,-206.59 3.99,-283.27 10.45,-14.62 24.48,-26.23 39.56,-35.65 20.16,-12.6 42.47,-21.17 65.56,-25.73 -4.78,-20.68 -11.43,-40.94 -19.86,-60.44 20.3,-30.58 114.93,-34.25 132.43,-4.93 0.99,25.38 1.97,50.76 2.94,76.14 11.53,4.65 22.66,10.32 33.11,17.19 40.45,26.64 67.1,67.07 82.58,112.31 16.85,49.25 40.57,96.05 55.97,146.25 5.61,18.29 10.04,39.16 0.41,55.69 -10.23,17.6 -32.34,23.58 -52.21,28.02 -5.61,1.25 -11.23,2.49 -16.86,3.74" /><path
         id="path30"
         style="fill:#3b455a;fill-opacity:1;fill-rule:nonzero;stroke:none"
         d="m 2363.26,4209.15 c 43.81,28.17 109.52,40.3 150.71,37.31 124.53,-9.02 170.15,-100.46 176.8,-214.96 34.31,43.61 98.68,98.45 102.57,154.55 3.18,45.92 -3.17,108.55 -28.9,148.21 -24.07,37.11 -85.63,57.5 -122.23,79 -34.51,20.27 -69.03,40.54 -103.53,60.81 -7.18,4.21 -14.56,8.51 -22.75,9.93 -9.71,1.68 -19.59,-0.8 -29.12,-3.26 -81.57,-21.08 -163.12,-42.16 -244.68,-63.24 -15.67,-4.05 -33.53,-9.96 -39.29,-25.08 -3.51,-9.2 -1.45,-19.47 0.66,-29.09 9.25,-42.34 27.03,-85.62 31.43,-128.51 4.98,-24.91 19.84,-152.63 63.97,-137.89 12.95,21.19 14.89,47.28 24.98,69.96 7.46,16.77 21.62,30.83 39.38,42.26" /><path
         id="path32"
         style="fill:#ccd2d9;fill-opacity:1;fill-rule:nonzero;stroke:none"
         d="m 2374.54,3856.73 -129.96,-39.55 -474.64,-497.24 -28.25,-163.87 226.9,-374.63 61.27,137.32 -96.05,276.86 152.56,107.37 203.42,457.68 84.75,96.06" /><path
         id="path34"
         style="fill:#efefef;fill-opacity:1;fill-rule:nonzero;stroke:none"
         d="m 6478.1,7673.89 -1345.21,-13.41 -941.71,-960.69 13.42,-1345.21 960.69,-941.71 1345.21,13.42 941.71,960.69 -13.42,1345.2 -960.69,941.71" /><path
         id="path36"
         style="fill:#d34e4e;fill-opacity:1;fill-rule:nonzero;stroke:none"
         d="m 7332.2,6686.78 -897.37,879.65 -1256.53,-12.54 -879.65,-897.37 12.54,-1256.54 897.36,-879.64 1256.55,12.54 879.64,897.36 -12.54,1256.54" /><path
         id="path38"
         style="fill:#ffffff;fill-opacity:1;fill-rule:nonzero;stroke:none"
         d="m 5156.29,6201.89 0.13,-12.95 -141.39,-1.41 -0.1,9.71 c -0.61,62.59 -38.79,102.15 -101.39,101.53 -66.92,-0.66 -103.28,-34.49 -102.83,-79.82 1.51,-150.01 360.01,-57.93 362.73,-329.91 1.69,-169.44 -105.58,-236.35 -258.84,-237.89 -135.99,-1.36 -256.56,75.16 -258.08,227.34 -0.08,8.63 0.9,18.36 0.84,23.75 l 143.55,1.43 c 0.02,-2.16 -0.96,-11.88 -0.91,-17.27 0.7,-70.16 44.35,-117.21 119.89,-116.46 83.11,0.83 111.81,45.37 111.38,88.54 -1.76,175.92 -360.11,67.64 -362.92,349.33 -1.4,140.31 114.49,208.39 245.09,209.69 131.67,1.32 241.33,-63.44 242.85,-215.61" /><path
         id="path40"
         style="fill:#ffffff;fill-opacity:1;fill-rule:nonzero;stroke:none"
         d="m 5733.96,6289.69 -183.47,-1.84 6.16,-617.34 -138.14,-1.38 -6.17,617.34 -183.47,-1.82 -1.23,123.04 505.09,5.03 1.23,-123.03" /><path
         id="path42"
         style="fill:#ffffff;fill-opacity:1;fill-rule:nonzero;stroke:none"
         d="m 5917.49,6071.32 0.54,-53.97 c 1.47,-147.85 57.41,-236.88 167.5,-235.79 110.08,1.11 164.23,91.23 162.75,239.09 l -0.54,53.97 c -1.47,147.86 -57.41,236.88 -167.49,235.79 -110.08,-1.1 -164.23,-91.23 -162.76,-239.09 z m 472.99,-22.27 c 2.61,-261.18 -112.74,-384.29 -303.77,-386.2 -191.04,-1.91 -308.81,118.89 -311.42,380.07 -2.6,261.18 112.75,384.31 303.78,386.21 191.03,1.91 308.8,-118.9 311.41,-380.08" /><path
         id="path44"
         style="fill:#ffffff;fill-opacity:1;fill-rule:nonzero;stroke:none"
         d="m 6627.61,6298.6 2.08,-208.3 112.24,1.12 c 66.92,0.67 103.21,42.05 102.52,110.04 -0.59,60.43 -38.76,98.92 -104.6,98.26 z m 3.3,-330.26 2.86,-287.08 -138.14,-1.38 -7.4,740.37 264.43,2.65 c 153.26,1.52 232.97,-91.58 234.26,-220.02 1.39,-139.23 -90.51,-231.88 -229.74,-233.28 l -126.27,-1.26" /><path
         id="path46"
         style="fill:#2e3644;fill-opacity:1;fill-rule:nonzero;stroke:none"
         d="m 8130.24,720.211 9.04,-70.242 -131.45,-88.297 -79.28,61.207 61.22,79.273 131.45,88.297 9.02,-70.238" /><path
         id="path48"
         style="fill:#ccd2d9;fill-opacity:1;fill-rule:nonzero;stroke:none"
         d="m 8134.69,743.789 -101.37,895.811 121.96,1002.85 -27.42,213.32 -544.79,20.69 -19.65,-347.2 91.44,-891.04 344.09,-940.208 135.74,45.777" /><path
         id="path50"
         style="fill:#ccd2d9;fill-opacity:1;fill-rule:nonzero;stroke:none"
         d="m 7183.33,2776.08 -1.44,-903.98 181.97,-1163.721 130.96,1.301 72,1076.18 168.49,1077.13 -551.98,-86.91" /><path
         id="path52"
         style="fill:#2e3644;fill-opacity:1;fill-rule:nonzero;stroke:none"
         d="m 7494.62,654.441 -140.93,-72.222 -71.51,70.101 70.11,71.532 141.63,1.41 0.7,-70.821" /><path
         id="path54"
         style="fill:#7fc5a3;fill-opacity:1;fill-rule:nonzero;stroke:none"
         d="m 8211.66,2468.63 c -1.25,39.17 -3.42,71.87 -3.73,83.55 -2.81,105.08 -12.17,209.93 -25.33,314.27 -11.79,93.5 -26.66,325.62 -42.67,418.55 -13.21,76.72 -59.25,268.23 -92.52,339.39 -82.71,176.98 -57.16,193.33 -420.53,245.88 -159.25,23.03 -196.9,-76.22 -327.09,-190.35 -12.85,-11.26 -12.14,-78.28 -15.12,-96.03 -5.25,-31.25 -10.87,-62.45 -17.32,-93.51 -5.06,-24.41 -10.65,-48.75 -16.92,-72.92 l 0.02,0.01 c 0,0 -109.31,-497.41 -181.58,-603.05 -72.29,-105.64 -221.61,-253.33 28.17,-343.5 44.28,-14.31 88.82,-27.93 134.89,-35.21 0,0 204.29,22.71 309.35,21.92 96.77,-0.73 193.93,-10.51 289.04,-26.92 63.62,-10.63 128.53,-26.08 185.43,-55.8 54.29,-28.36 93.47,-70.08 148.55,-99.43 5.22,-2.78 10.93,-5.67 16.87,-4.85 31.63,4.39 33.12,115.55 30.49,198" /><path
         id="path56"
         style="fill:#eac1a4;fill-opacity:1;fill-rule:nonzero;stroke:none"
         d="m 7626.46,3820.36 c 18.33,-9.05 61.61,-12.3 106.75,5.38 9.09,3.57 15.24,12.34 15.11,22.1 -0.36,27.42 -2.57,54.82 -6.6,81.95 33.86,11.9 72.99,29.75 78.89,65.15 1.85,11.15 -0.07,22.55 -2,33.68 -7.96,46.06 -15.91,92.1 -23.87,138.16 -2.76,15.93 -5.69,32.31 -14.34,45.96 -15.2,23.95 -44.7,34.43 -72.65,39.27 -71.3,12.38 -149.01,-3.06 -204.3,-49.77 -14.71,-12.43 -28.02,-27.38 -34.5,-45.51 -10,-27.96 -2.52,-58.81 5.01,-87.53 6.97,-26.51 13.93,-53.04 20.89,-79.55 8.01,-30.5 19.57,-65.17 48.96,-76.6 15.59,-6.07 34.01,-4.3 48.14,-13.28 24.91,-15.84 21.56,-52.89 34.51,-79.41" /><path
         id="path58"
         style="fill:#3b455a;fill-opacity:1;fill-rule:nonzero;stroke:none"
         d="m 7214.9,4279.61 c -7,11.5 -14.55,22.6 -23,33.01 -18.28,22.54 -40.81,41.86 -55.52,66.88 -14.72,25.02 -19.9,58.95 -2.24,81.98 11.4,14.88 29.88,22.31 47.85,27.6 59.22,17.42 123.13,18.61 182.95,3.38 56.97,-14.5 107.97,-38.52 165.32,-17.1 53.89,20.13 92.82,11.93 149.14,-8.17 60.95,-21.75 142.77,-26.88 197.94,-57.58 23.04,-12.82 41.43,-32.85 55.76,-54.99 49.64,-76.67 49.92,-182.4 0.67,-259.34 -11.05,-17.25 -24.27,-33.02 -38.16,-48.09 -28.75,-31.19 -63.15,-69.71 -102.71,-81.26 -0.94,35.38 31.29,146.96 4.12,175.96 -43.13,46.03 -140.64,29.98 -194.14,18.64 -58.36,-12.37 -110.37,-53.68 -168.22,-62.51 -41.64,-6.36 -94.77,14.06 -130.18,35.57 -43.68,26.58 -64.02,104.05 -89.58,146.02" /><path
         id="path60"
         style="fill:#7fc5a3;fill-opacity:1;fill-rule:nonzero;stroke:none"
         d="m 7928.55,3802.26 226.73,-198.67 252.94,-531.53 -319.47,-380.07 -54.96,212.54 -105.24,897.73" /><path
         id="path62"
         style="fill:#eac1a4;fill-opacity:1;fill-rule:nonzero;stroke:none"
         d="m 6460.23,3649.53 -112.6,72.5 28.89,49.48 88.11,-32.57 2.8,29.73 88.8,-73.78 -23.09,-55.49 -72.91,10.13" /><path
         id="path64"
         style="fill:#7fc5a3;fill-opacity:1;fill-rule:nonzero;stroke:none"
         d="m 7514.62,3853.73 -587.5,-240.88 -370.89,82.04 -36.24,-70.93 338.27,-249.03 466.23,55.5 190.13,423.3" /><path
         id="path66"
         style="fill:#2e3644;fill-opacity:1;fill-rule:nonzero;stroke:none"
         d="m 5671.76,660.82 -3.17,-61.48 119.81,-67.82 64.65,58.332 -58.32,64.636 -119.81,67.813 -3.16,-61.481" /><path
         id="path68"
         style="fill:#40495f;fill-opacity:1;fill-rule:nonzero;stroke:none"
         d="m 5574.08,2526.77 -9.61,-186.73 207.35,-821.98 -105.47,-837.091 120.7,-30.668 335.12,1005.749 6.01,302.66 -83.25,622.18 -470.85,-54.12" /><path
         id="path70"
         style="fill:#40495f;fill-opacity:1;fill-rule:nonzero;stroke:none"
         d="m 6492.21,2544.42 92.91,-780.36 -39.09,-1023.22 -113.23,-12.149 -171.29,921.879 -254.7,912.92 485.4,-19.07" /><path
         id="path72"
         style="fill:#2e3644;fill-opacity:1;fill-rule:nonzero;stroke:none"
         d="m 6438.58,681.031 129.01,-48.082 54.64,67.781 -67.79,54.649 -122.43,-13.137 6.57,-61.211" /><path
         id="path74"
         style="fill:#474ebb;fill-opacity:1;fill-rule:nonzero;stroke:none"
         d="m 6537.92,2674.34 c -116.59,237.43 -163.14,497.76 -224.23,753.85 -18.06,75.56 -36.79,152.74 -78.81,218.07 -48.26,75.02 -114.93,108.63 -188.78,121.56 -93.99,16.45 -199.62,-0.61 -293.72,-8.48 -56.94,-177.88 -94.02,-76.95 -160.88,-251.34 -13.85,-36.15 -53.2,-349.27 -67.79,-385.14 0,0 -153.63,-481.12 -104.46,-861.63 0.49,-3.77 0.91,-7.44 1.34,-11.13 9.92,-1.71 19.43,-3.43 28.33,-5.23 132.62,-26.85 267.91,-41.33 403.28,-39.57 120.08,1.57 240.15,16.11 356.77,44.95 159.63,39.49 349.18,23.35 479.68,128.55 -38.26,77.91 -112.47,217.63 -150.73,295.54" /><path
         id="path76"
         style="fill:#474ebb;fill-opacity:1;fill-rule:nonzero;stroke:none"
         d="m 5164.07,3706.47 131.14,711.95 111.44,-21.54 5.11,-537.21 -247.69,-153.2" /><path
         id="path78"
         style="fill:#474ebb;fill-opacity:1;fill-rule:nonzero;stroke:none"
         d="m 5164.07,3706.47 650.76,-424.07 -92.48,434.02 -399.82,182.53 -158.46,-192.48" /><path
         id="path80"
         style="fill:#aa6755;fill-opacity:1;fill-rule:nonzero;stroke:none"
         d="m 6006.56,4070.07 c -84.46,127.28 -301.92,120.37 -305.08,-55.17 -0.94,-52.75 4.59,-106.93 27.91,-154.26 23.32,-47.32 66.92,-86.95 119.1,-94.73 l 0.89,-0.11 c 1.71,-13.47 3.42,-26.93 5.14,-40.39 0.37,-2.89 0.88,-6.06 3.08,-7.97 2.51,-2.18 6.24,-1.9 9.54,-1.52 16.11,1.91 32.23,3.82 48.33,5.73 7.99,0.95 16.29,2 23.03,6.38 14.76,9.59 16.21,30.8 12.29,47.96 -0.94,4.1 -2.09,8.19 -3.27,12.28 83.07,56.36 114.26,198.6 59.04,281.8" /><path
         id="path82"
         style="fill:#3b455a;fill-opacity:1;fill-rule:nonzero;stroke:none"
         d="m 5660.73,4219.87 c -38.17,-8.79 -55.15,-55.82 -81.23,-87.24 -21.69,-26.16 -51.49,-42.52 -75.22,-66.45 -23.73,-23.92 -41.57,-61.42 -29.18,-94.74 -35.02,3.72 -72.61,6.87 -102.74,-12.19 -30.11,-19.07 -45.1,-69.85 -19.53,-96.82 22.89,-24.16 63.01,-16.22 86.56,-39.59 37.27,-36.97 11.23,-127.34 59.23,-142.72 11.55,-3.7 24.12,-0.75 35.6,-4.72 14.25,-4.93 23.83,-19.24 34.04,-31.3 46.3,-54.64 126.08,-70.9 185.6,-37.81 31.87,33.63 48.18,83.67 45.15,132.43 -3.65,58.77 -38.72,66.04 -62.64,113.15 -26.16,51.51 -31.38,114.87 -14,169.66 11.32,35.66 33.55,71.29 65.46,87.46 12.98,6.58 13.16,-6.33 24.22,10.05 4.76,7.03 6.99,27.44 5.66,36.28 -47.74,14.94 -106.74,76.13 -156.98,64.55" /><path
         id="path84"
         style="fill:#3b455a;fill-opacity:1;fill-rule:nonzero;stroke:none"
         d="m 6069.08,4303.26 c 20.64,2.12 40.55,10.81 61.32,9.99 31.21,-1.22 40.44,-29.49 57.4,-50.54 18.78,-23.31 44.91,-54.22 70.56,-68.01 18.48,-9.94 39.49,-11.5 59.39,-16.96 19.9,-5.45 40.71,-16.87 48.51,-37.71 7.4,-19.76 1.12,-42.57 6.87,-62.93 9.13,-30.16 20.06,-43.14 22.77,-76.55 1.4,-17.24 2.61,-35.61 -4.85,-50.67 -9.8,-19.83 -31.63,-28.09 -51.95,-32.38 -20.32,-4.3 -42.12,-6.75 -58.44,-20.46 -35.41,-29.73 -11.61,-67.99 -8.89,-106.83 4.13,-59.1 -44.84,-113.75 -98.85,-113.35 -45.8,0.33 -86.74,37.29 -102.75,83.35 -8.02,23.06 -7.28,47.78 -15.55,70.77 -7.97,22.16 -32.24,47.68 -19.2,72.88 3.18,6.13 8.51,10.8 10.96,17.34 1.98,5.28 1.88,11.28 1.05,16.98 -2.88,19.79 -14.62,37.98 -30.75,47.66 -11.59,6.96 -25.45,9.92 -34.87,20.11 -10.8,11.67 -12.86,29.46 -17.92,45.05 -12.25,37.68 -46.56,65.88 -82.81,68.06 -23.88,1.44 -44.26,-0.18 -67.53,7.14 -3.53,1.11 -57.66,20.86 -55.69,12.77 -3.44,14.08 -0.22,28.82 3.47,42.64 6.07,22.72 13.76,45.55 27.91,63.28 45.77,57.35 79.75,-20.85 123.14,8.23 10.47,7.01 14.98,20.89 22.83,31.21 14.83,19.48 40.42,24.63 63.81,23.58 23.4,-1.06 46.81,-7.04 70.06,-4.65" /><path
         id="path86"
         style="fill:#474ebb;fill-opacity:1;fill-rule:nonzero;stroke:none"
         d="m 6234.08,3367.42 c 12.27,-54.2 57.04,-105.53 96.49,-162.02 46.34,-66.36 92.68,-132.71 139.03,-199.08 l -150.76,-477.92 94.12,-32.33 271.74,476.82 c -0.27,190.46 -170.3,288.07 -214.9,395 -23.22,55.67 -201.69,227.85 -234.92,278.37 -48.88,74.34 17.62,-51.26 -42.17,-111.68 -50.11,-50.63 31.65,-124.15 41.37,-167.16" /><path
         id="path88"
         style="fill:#aa6755;fill-opacity:1;fill-rule:nonzero;stroke:none"
         d="m 6386.63,2467.3 -19.4,-26.16 -45.4,10.84 -37.71,-24.96 -8.97,24.29 65.82,68.46 50.51,-17.24 -4.85,-35.23" /><path
         id="path90"
         style="fill:#aa6755;fill-opacity:1;fill-rule:nonzero;stroke:none"
         d="m 5320.37,4455.09 48.81,81.37 25.2,-57.04 28.31,18.38 10.65,-32.28 -36.09,-67.1 -75.84,14.7 -1.04,41.97" /><path
         id="path92"
         style="fill:#2e3644;fill-opacity:1;fill-rule:nonzero;stroke:none"
         d="m 4212.43,785.352 124.6,-68.5 -10.82,-58.512 -221.42,30.402 11.89,84.258 95.75,12.352" /><path
         id="path94"
         style="fill:#2e3644;fill-opacity:1;fill-rule:nonzero;stroke:none"
         d="m 3648.97,721.191 -86.67,1.051 -21.17,-73.39 2.2,-0.633 -0.55,-0.071 144.35,-82.976 68.21,-6.68 7.63,77.949 -18.58,13.231 -95.42,71.519" /><path
         id="path96"
         style="fill:#474ebb;fill-opacity:1;fill-rule:nonzero;stroke:none"
         d="m 3916.23,2103.62 c 13.92,1.46 51.9,-497.26 51.9,-497.26 l -269.76,-906.309 -155.55,30.609 94.76,904.91 c 0,0 -329.29,379.71 -234.46,663.36 143.28,-69.48 513.11,-195.31 513.11,-195.31" /><path
         id="path98"
         style="fill:#474ebb;fill-opacity:1;fill-rule:nonzero;stroke:none"
         d="m 4304.88,2099.4 31.49,-444.64 -86.8,-885.03 -160.12,8.168 c 0,0 -38.58,838.242 -54.44,855.352 -15.86,17.1 -152.22,456.94 -152.22,456.94 l 422.09,9.21" /><path
         id="path100"
         style="fill:#8ec3cb;fill-opacity:1;fill-rule:nonzero;stroke:none"
         d="m 4094.39,1896.47 c -508.5,9.34 -545.83,265.92 -657.79,293.91 -111.96,28 -53.59,161.32 -53.59,161.32 0,0 21.19,59.49 30.26,90.6 65.3,223.89 261.39,511.27 261.45,511.37 96.71,131.96 193.78,248.53 277.58,318.91 249.26,209.32 516.26,219.1 516.26,219.1 384.58,-120.25 248.85,-301.06 253.27,-348.63 -126.5,-115.94 -218.13,-289.64 -285.71,-476.16 -31.84,-98.79 -69.4,-269.42 -43.15,-476.51 8.42,-66.43 18.15,-124.02 27.8,-174.18 1.88,-65.47 -61.09,-123.93 -326.38,-119.73" /><path
         id="path102"
         style="fill:#ffffff;fill-opacity:1;fill-rule:nonzero;stroke:none"
         d="m 4470.05,3451.15 c 0,0 85.6,46.9 138.61,-34.66 64.35,-98.99 -299.43,-545.49 -290.8,-1500.39 -95.31,-19.31 -340.98,-65.4 -594.36,54.17 57.55,283.7 305.98,1139.32 746.55,1480.88" /><path
         id="path104"
         style="fill:#ebceb1;fill-opacity:1;fill-rule:nonzero;stroke:none"
         d="m 4823.12,2045.79 99.49,-92.29 41.31,40.8 -54.14,78.29 28.48,10.23 -94.75,68.61 -48.67,-36.63 28.28,-69.01" /><path
         id="path106"
         style="fill:#8ec3cb;fill-opacity:1;fill-rule:nonzero;stroke:none"
         d="m 4720.95,3317.44 34.72,-80.54 -33.16,-592.21 c 0,0 175.29,-506.94 170.56,-506.94 -4.74,0 -118.45,-37.9 -118.45,-37.9 l -255.83,511.67 v 312.69 l 202.16,393.23" /><path
         id="path108"
         style="fill:#3b455a;fill-opacity:1;fill-rule:nonzero;stroke:none"
         d="m 4658.21,3752.67 c 43.09,-33.63 80.48,-105.08 65.64,-161.34 -7.15,-27.09 -26.7,-45.25 -33.21,-74.55 -13.03,-57.72 -113.39,-100.22 -71.18,-167.2 21.7,-34.43 63.73,-48.98 102.57,-61.15 4.71,-1.49 9.66,-2.97 14.5,-2.01 7.97,1.58 13.33,9.53 14.81,17.52 1.48,7.98 -0.03,16.18 -0.88,24.25 -8.84,84.52 48.36,169.13 69.55,249 21.15,79.71 20.05,170.73 -35.21,236.94 -47.12,-4.35 -66.21,4.73 -96.45,-31.68 l -30.14,-29.78" /><path
         id="path110"
         style="fill:#eac1a4;fill-opacity:1;fill-rule:nonzero;stroke:none"
         d="m 4557.29,3414.66 c 56.09,-4.41 110.88,26.34 146.45,69.94 35.56,43.59 54.29,98.57 65.93,153.62 38.75,183.18 -185.58,242.43 -303.83,130.38 -103.06,-97.65 -71.65,-341.12 91.45,-353.94" /><path
         id="path112"
         style="fill:#3b455a;fill-opacity:1;fill-rule:nonzero;stroke:none"
         d="m 4277.99,3449.05 c 29.81,2.21 59.54,5.29 86.26,24.57 43.18,31.17 68.66,101.42 95.16,145.9 27.92,46.89 59.88,97.18 111.43,115.08 33.67,11.68 63.57,4.07 95.2,-8.6 21.67,-8.69 19.08,-17.16 42.11,-13.26 17.65,3 40.66,24.43 50.36,38.53 16.37,23.79 17.44,55.66 8.75,83.19 -13.39,42.38 -38.29,71.07 -77.85,88.71 -138.87,61.95 -278.98,23.01 -375.98,-97.34 -46.62,-57.85 -63.33,-137.04 -110.19,-191.88 -28.93,-33.86 -64.93,-49.4 -92.57,-86.78 -71.72,-97 -189.45,-210.15 -231.82,-323.8 -1.56,-4.21 -3,-9 -1.06,-13.05 3.97,-8.23 16.27,-5.39 24.46,-1.31 47.74,23.83 95.49,47.65 143.25,71.48 18.75,9.35 37.76,18.89 53.21,33.06 38.46,35.26 51.8,96.16 98.48,119.46 25.47,12.71 53.17,14 80.8,16.04" /><path
         id="path114"
         style="fill:#8ec3cb;fill-opacity:1;fill-rule:nonzero;stroke:none"
         d="m 4082.92,3208.48 -383.75,90.01 -102.57,510.02 127.4,-11.14 98.34,-333.06 497.46,-14.21 28.43,-37.9 -265.31,-203.72" /><path
         id="path116"
         style="fill:#ebceb1;fill-opacity:1;fill-rule:nonzero;stroke:none"
         d="m 3703.52,3799.17 -12.55,133.72 -94.72,72.43 -5.58,-38.99 33.44,-33.44 c 0,0 8.35,-39 32.03,-58.51 -2.78,-22.28 -20.89,-69.64 -20.89,-69.64 l 68.27,-5.57" /><path
         id="path118"
         style="fill:#ebb044;fill-opacity:1;fill-rule:nonzero;stroke:none"
         d="M 10116.5,3353.07 8949.2,4520.32 c -98.06,98.06 -257.04,98.06 -355.1,0 L 7426.85,3353.07 c -98.06,-98.06 -98.06,-257.04 0,-355.1 L 8594.1,1830.71 c 98.06,-98.05 257.04,-98.05 355.1,0 l 1167.3,1167.26 c 98,98.06 98,257.04 0,355.1" /><path
         id="path120"
         style="fill:#3b455a;fill-opacity:1;fill-rule:nonzero;stroke:none"
         d="m 9316.38,3077.66 v 414.21 c 0,300.36 -244.37,544.71 -544.73,544.71 -300.36,0 -544.72,-244.35 -544.72,-544.71 v -955.42 h 266.61 v 955.42 c 0,153.34 124.76,278.11 278.12,278.11 153.35,0 278.12,-124.77 278.12,-278.11 V 3077.66 H 8763.8 l 419.28,-541.21 419.27,541.21 h -285.97" /><path
         id="path122"
         style="fill:#efefef;fill-opacity:1;fill-rule:nonzero;stroke:none"
         d="m 5762.65,2876.78 c -192.64,192.64 -448.77,298.74 -721.21,298.74 -272.45,0 -528.57,-106.1 -721.22,-298.74 -192.64,-192.64 -298.74,-448.77 -298.74,-721.21 0,-272.45 106.1,-528.58 298.74,-721.21 192.65,-192.65 448.77,-298.74 721.22,-298.74 272.44,0 528.57,106.09 721.21,298.74 192.64,192.63 298.74,448.76 298.74,721.21 0,272.44 -106.1,528.57 -298.74,721.21" /><path
         id="path124"
         style="fill:#d34e4e;fill-opacity:1;fill-rule:nonzero;stroke:none"
         d="m 5989.35,2155.57 c 0,523.51 -424.4,947.91 -947.91,947.91 -523.52,0 -947.91,-424.4 -947.91,-947.91 0,-523.52 424.39,-947.91 947.91,-947.91 523.51,0 947.91,424.39 947.91,947.91" /><path
         id="path126"
         style="fill:#ffffff;fill-opacity:1;fill-rule:nonzero;stroke:none"
         d="m 4318.54,2006.8 h 1445.8 v 297.539 h -1445.8 z" /><path
         id="path128"
         style="fill:#aa6755;fill-opacity:1;fill-rule:nonzero;stroke:none"
         d="m 3212.67,4752.48 33.04,158.84 -63.83,57.57 -48.35,-57.17 -13.46,-64.68 -40.95,-7.67 20.07,-110.92 113.48,24.03" /><path
         id="path130"
         style="fill:#ccd2d9;fill-opacity:1;fill-rule:nonzero;stroke:none"
         d="m 2720.96,3817.62 289.81,206.4 88.42,704.43 113.48,24.03 -4.8,-732.24 -79.74,-166.15 -341.42,-310.76 -65.75,274.29" /><path
         id="path132"
         style="fill:#3b455a;fill-opacity:1;fill-rule:nonzero;stroke:none"
         d="m 2477.42,2989.94 c 0,419.25 -339.87,759.12 -759.12,759.12 -419.25,0 -759.12,-339.87 -759.12,-759.12 0,-419.25 339.87,-759.12 759.12,-759.12 419.25,0 759.12,339.87 759.12,759.12" /><path
         id="path134"
         style="fill:#ffffff;fill-opacity:1;fill-rule:nonzero;stroke:none"
         d="m 2114.81,3129.51 -364.02,282.01 V 3226.3 h -100.96 c -180.88,0 -328.05,-147.17 -328.05,-328.06 v -329.88 h 193.59 v 329.88 c 0,74.15 60.32,134.47 134.46,134.47 h 100.96 v -185.22 l 364.02,282.02" /><path
         id="path136"
         style="fill:#ebb044;fill-opacity:1;fill-rule:nonzero;stroke:none"
         d="M 3912.98,4715.15 2791.63,6732.63 c -50.89,91.54 -181.8,93.68 -235.64,3.83 L 1369.48,4756.61 c -53.85,-89.84 9.77,-204.28 114.49,-205.99 l 2307.87,-37.61 c 104.72,-1.71 172.03,110.58 121.14,202.14" /><path
         id="path138"
         style="fill:#3b455a;fill-opacity:1;fill-rule:nonzero;stroke:none"
         d="m 2497.18,5081.93 299.3,-4.87 -4.82,-295.63 -299.31,4.88 z m 68.13,123.79 -73.64,890.17 343.34,-7.43 -100.76,-885.49 -168.94,2.75" /></g></g></svg>